<svg height="478pt" viewBox="0 -3 478.824 478" width="478pt" xmlns="http://www.w3.org/2000/svg"><path d="m319.40625.410156h-160c-22.078125.027344-39.972656 17.921875-40 40v24h16v-24c0-13.253906 10.746094-24 24-24h160c13.257812 0 24 10.746094 24 24v24h16v-24c-.023438-22.078125-17.917969-39.972656-40-40zm0 0" fill="#cc7400"/><path d="m423.40625 272.410156c.046875 87.839844-61.96875 163.472656-148.109375 180.640625-86.140625 17.171875-172.414063-28.90625-206.050781-110.050781-33.632813-81.140625-5.257813-174.742188 67.769531-223.550781 73.027344-48.808594 170.363281-39.226563 232.472656 22.882812 34.511719 34.496094 53.90625 81.285157 53.917969 130.078125zm0 0" fill="#ff6243"/><path d="m377.167969 394.171875c-44.398438 50.285156-112.652344 72.410156-178.105469 57.734375-65.457031-14.675781-117.726562-63.824219-136.402344-128.253906-18.675781-64.429688-.792968-133.914063 46.667969-181.320313 2.71875-2.71875 5.441406-5.28125 8.320313-7.679687-64.511719 72.765625-61.191407 183.1875 7.570312 251.949218 68.761719 68.761719 179.183594 72.082032 251.949219 7.570313zm0 0" fill="#d95339"/><path d="m391.40625 272.410156c0 83.949219-68.050781 152-152 152-83.945312 0-152-68.050781-152-152 0-83.945312 68.054688-152 152-152 83.949219 0 152 68.054688 152 152zm0 0" fill="#ffd422"/><path d="m354.527344 371.53125c-37.167969 43.226562-95.402344 62.003906-150.820313 48.636719-55.417969-13.371094-98.683593-56.640625-112.054687-112.054688-13.367188-55.417969 5.410156-113.65625 48.636718-150.820312-51.949218 60.242187-48.625 150.363281 7.625 206.613281s146.371094 59.574219 206.613282 7.625zm0 0" fill="#ebbf00"/><path d="m143.40625 448.410156c0 13.257813-10.742188 24-24 24-13.253906 0-24-10.742187-24-24 0-13.253906 10.746094-24 24-24 13.257812 0 24 10.746094 24 24zm0 0" fill="#898890"/><path d="m127.40625 470.972656c-2.554688.96875-5.265625 1.457032-8 1.4375-13.253906 0-24-10.742187-24-24 0-13.253906 10.746094-24 24-24 2.734375-.015625 5.445312.472656 8 1.441406-9.582031 3.359376-16 12.40625-16 22.558594 0 10.15625 6.417969 19.203125 16 22.5625zm0 0" fill="#787680"/><path d="m383.40625 448.410156c0 13.257813-10.742188 24-24 24-13.253906 0-24-10.742187-24-24 0-13.253906 10.746094-24 24-24 13.257812 0 24 10.746094 24 24zm0 0" fill="#898890"/><path d="m367.40625 470.972656c-2.554688.96875-5.265625 1.457032-8 1.4375-13.253906 0-24-10.742187-24-24 0-13.253906 10.746094-24 24-24 2.734375-.015625 5.445312.472656 8 1.441406-9.582031 3.359376-16 12.40625-16 22.558594 0 10.15625 6.417969 19.203125 16 22.5625zm0 0" fill="#787680"/><path d="m152.929688 67.132812-59.441407 59.359376-65.039062 65.039062c-15.019531-14.988281-23.460938-35.339844-23.460938-56.558594 0-21.222656 8.441407-41.570312 23.460938-56.5625l11.277343-11.277344c15-15.039062 35.363282-23.492187 56.601563-23.492187s41.601563 8.453125 56.601563 23.492187zm0 0" fill="#ff9811"/><path d="m450.367188 78.410156c15.019531 14.992188 23.460937 35.339844 23.460937 56.5625 0 21.21875-8.441406 41.570313-23.460937 56.558594l-65.039063-65.039062-59.441406-59.359376c7.296875-7.351562 15.96875-13.195312 25.519531-17.199218 30.011719-12.585938 64.648438-5.789063 87.683594 17.199218zm0 0" fill="#ff9811"/><path d="m255.40625 272.410156c0 8.839844-7.160156 16-16 16-8.835938 0-16-7.160156-16-16 0-8.835937 7.164062-16 16-16 8.839844 0 16 7.164063 16 16zm0 0" fill="#ff9811"/><path d="m231.40625 176.410156h16v80h-16zm0 0" fill="#ee8700"/><path d="m159.40625 264.410156h64v16h-64zm0 0" fill="#ee8700"/><path d="m65.289062 413.347656c-32.234374-39.902344-49.835937-89.640625-49.882812-140.9375h16c.035156 47.632813 16.382812 93.8125 46.320312 130.859375zm0 0" fill="#ffa733"/><path d="m413.527344 413.347656-12.4375-10.078125c29.9375-37.046875 46.28125-83.226562 46.316406-130.859375h16c-.042969 51.296875-17.644531 101.035156-49.878906 140.9375zm0 0" fill="#ffa733"/><path d="m59.054688 454.09375c-25.894532-25.761719-46.027344-56.726562-59.054688-90.851562l14.953125-5.664063c12.222656 31.984375 31.097656 61.003906 55.367187 85.152344zm0 0" fill="#ffa733"/><path d="m419.761719 454.09375-11.265625-11.363281c24.269531-24.148438 43.144531-53.171875 55.375-85.152344l14.953125 5.664063c-13.035157 34.125-33.167969 65.089843-59.0625 90.851562zm0 0" fill="#ffa733"/><g fill="#cc7400"><path d="m239.40625 296.410156c-13.253906 0-24-10.742187-24-24 0-13.253906 10.746094-24 24-24 13.257812 0 24 10.746094 24 24 0 13.257813-10.742188 24-24 24zm0-32c-4.417969 0-8 3.582032-8 8 0 4.421875 3.582031 8 8 8 4.421875 0 8-3.578125 8-8 0-4.417968-3.578125-8-8-8zm0 0"/><path d="m111.40625 264.410156h16v16h-16zm0 0"/><path d="m231.40625 384.410156h16v16h-16zm0 0"/><path d="m351.40625 264.410156h16v16h-16zm0 0"/><path d="m231.40625 144.410156h16v16h-16zm0 0"/></g></svg>