<?xml version="1.0" encoding="iso-8859-1"?>
<!-- Generator: Adobe Illustrator 19.0.0, SVG Export Plug-In . SVG Version: 6.00 Build 0)  -->
<svg fill="#3cb878" version="1.1" id="Capa_1" xmlns="http://www.w3.org/2000/svg" xmlns:xlink="http://www.w3.org/1999/xlink" x="0px" y="0px"
	 viewBox="0 0 512 512" style="enable-background:new 0 0 512 512;" xml:space="preserve">
<g>
	<g>
		<circle cx="139.691" cy="46.434" r="41.755"/>
	</g>
</g>
<g>
	<g>
		<path d="M268.897,275.556c-0.329-0.904-33.225-90.905-47.714-133.063c-9.347-27.201-25.02-40.993-46.585-40.993
			c-1.113,0-2.189,0-3.248,0c5.378,5.221,9.48,11.748,11.769,19.073c10.487,3.63,18.04,13.598,18.04,25.304v60.934
			c14.372,40.119,29.668,81.966,29.894,82.581c3.821,10.45,15.388,15.825,25.84,12.004
			C267.343,297.576,272.718,286.007,268.897,275.556z"/>
	</g>
</g>
<g>
	<g>
		<path d="M104.793,101.5c-21.562,0-37.236,13.792-46.584,40.992c-14.488,42.156-47.384,132.16-47.715,133.064
			c-3.821,10.45,1.553,22.02,12.003,25.84c10.442,3.82,22.018-1.547,25.84-12.004c0.225-0.617,15.521-42.463,29.893-82.581v-60.934
			c0-11.705,7.554-21.673,18.04-25.304c2.289-7.325,6.392-13.852,11.77-19.073C106.983,101.5,105.906,101.5,104.793,101.5z"/>
	</g>
</g>
<g>
	<g>
		<path d="M219.631,328.345c-8.461-43.676-14.352-74.023-18.47-95.246v4.717c0,14.764-12.011,26.774-26.774,26.774h-69.38
			c-14.764,0-26.774-12.011-26.774-26.774v-4.725c-4.119,21.229-10.011,51.58-18.47,95.255c-1.342,6.93,3.999,13.333,10.988,13.333
			c4.339,0,9.546,0,15.374,0v146.144c0,13.353,10.824,24.177,24.177,24.177c13.353,0,24.177-10.824,24.177-24.177V341.678
			c3.475,0,6.963,0,10.438,0v146.144c0,13.353,10.824,24.177,24.177,24.177s24.177-10.824,24.177-24.177V341.678
			c5.829,0,11.035,0,15.373,0C215.667,341.678,220.971,335.267,219.631,328.345z"/>
	</g>
</g>
<g>
	<g>
		<path d="M174.385,134.117h-4.22c0-5.457-1.449-10.579-3.973-15.014c-5.244-9.22-15.153-15.456-26.497-15.456
			s-21.253,6.236-26.498,15.456c-2.523,4.435-3.973,9.557-3.973,15.014h-4.22c-6.495,0-11.76,5.265-11.76,11.76v91.939
			c0,6.495,5.265,11.76,11.76,11.76h69.38c6.495,0,11.76-5.265,11.76-11.76v-91.938C186.145,139.382,180.88,134.117,174.385,134.117
			z M136.09,119.103h7.21c6.786,1.631,11.851,7.735,11.851,15.014h-30.912C124.239,126.837,129.304,120.733,136.09,119.103z
			 M156.044,220.882h-32.697c-5.527,0-10.009-4.481-10.009-10.009c0-5.528,4.482-10.009,10.009-10.009h32.697
			c5.527,0,10.009,4.481,10.009,10.009C166.053,216.401,161.571,220.882,156.044,220.882z"/>
	</g>
</g>
<g>
	<g>
		<circle cx="399.284" cy="42.139" r="42.139"/>
	</g>
</g>
<g>
	<g>
		<path d="M502.735,145.591c-0.132-26.4-22.055-47.877-48.868-47.877h-26.473c7.129,5.621,12.549,13.316,15.318,22.178
			c0.094,0.033,0.185,0.074,0.279,0.108c11.252,3.827,19.502,14.76,19.078,27.325v147.747c0,11.23,9.104,20.333,20.333,20.333
			s20.333-9.104,20.333-20.333V145.693C502.735,145.659,502.735,145.625,502.735,145.591z"/>
	</g>
</g>
<g>
	<g>
		<path d="M433.979,263.909h-69.381v-0.001c-7.505,0-14.403-3.108-19.268-8.1c0,0.081,0,5.039,0,231.79
			c0,13.476,10.816,24.4,24.292,24.4s24.4-10.924,24.4-24.4V292.571h10.534V487.6c0,13.476,10.924,24.4,24.4,24.4
			s24.292-10.924,24.292-24.4c0-221.379,0-231.79,0-231.79C448.38,260.802,441.484,263.909,433.979,263.909z"/>
	</g>
</g>
<g>
	<g>
		<path d="M344.709,97.714c-26.814,0-48.736,21.477-48.868,47.877c0,0.034,0,0.068,0,0.102v149.379
			c0,11.229,9.104,20.333,20.333,20.333c11.229,0,20.333-9.104,20.333-20.333V149.73c-1.679-13.61,7.057-25.966,19.376-29.899
			c2.776-8.836,8.186-16.509,15.298-22.118H344.709z"/>
	</g>
</g>
<g>
	<g>
		<path d="M433.978,133.435h-4.22c0-5.457-1.449-10.579-3.972-15.014c-5.245-9.22-15.153-15.456-26.498-15.456
			c-11.345-0.001-21.253,6.236-26.498,15.456c-2.523,4.435-3.973,9.557-3.973,15.014h-4.22c-6.495,0-11.76,5.265-11.76,11.76v91.939
			c0,6.495,5.265,11.76,11.76,11.76h69.38c6.495,0,11.76-5.265,11.76-11.76v-91.939C445.738,138.7,440.473,133.435,433.978,133.435z
			 M395.684,118.421h7.208c6.787,1.63,11.852,7.734,11.852,15.014h-30.912C383.832,126.155,388.896,120.051,395.684,118.421z
			 M415.636,220.2h-32.698c-5.528,0-10.009-4.481-10.009-10.009c0-5.528,4.481-10.009,10.009-10.009h32.698
			c5.528,0,10.009,4.481,10.009,10.009S421.165,220.2,415.636,220.2z"/>
	</g>
</g>
</svg>
