<svg fill="#fff" id="Layer_5" enable-background="new 0 0 64 64" height="512" viewBox="0 0 64 64" width="512" xmlns="http://www.w3.org/2000/svg"><path d="m55 34.744v-20.744c0-2.757-2.243-5-5-5h-1c0-4.411-3.589-8-8-8s-8 3.589-8 8h-10c0-4.411-3.589-8-8-8s-8 3.589-8 8h-1c-2.757 0-5 2.243-5 5v30c0 2.757 2.243 5 5 5h27.051c.518 7.805 7.016 14 14.949 14 8.271 0 15-6.729 15-15 0-5.743-3.248-10.737-8-13.256zm-14-31.744c3.309 0 6 2.691 6 6v2c0 3.309-2.691 6-6 6v-2c2.206 0 4-1.794 4-4v-2c0-2.206-1.794-4-4-4s-4 1.794-4 4h-2c0-3.309 2.691-6 6-6zm2 6h-4c0-1.103.897-2 2-2s2 .897 2 2zm-28-6c3.309 0 6 2.691 6 6v2c0 3.309-2.691 6-6 6v-2c2.206 0 4-1.794 4-4v-2c0-2.206-1.794-4-4-4s-4 1.794-4 4h-2c0-3.309 2.691-6 6-6zm2 6h-4c0-1.103.897-2 2-2s2 .897 2 2zm-11 2h11c0 1.103-.897 2-2 2h-2v6h2c4.411 0 8-3.589 8-8h20c0 1.103-.897 2-2 2h-2v6h2c4.411 0 8-3.589 8-8h1c1.654 0 3 1.346 3 3v7h-50v-7c0-1.654 1.346-3 3-3zm-3 33v-21h50v10.875c-1.567-.556-3.245-.875-5-.875-7.933 0-14.431 6.195-14.949 14h-27.051c-1.654 0-3-1.346-3-3zm45 17c-7.168 0-13-5.832-13-13s5.832-13 13-13 13 5.832 13 13-5.832 13-13 13z"/><path d="m48 37c-6.065 0-11 4.935-11 11s4.935 11 11 11 11-4.935 11-11-4.935-11-11-11zm5.657 15.243-1.414 1.414 1.368 1.368c-1.295 1.036-2.878 1.723-4.611 1.916v-1.941h-2v1.941c-1.733-.193-3.316-.88-4.611-1.916l1.368-1.368-1.414-1.414-1.368 1.368c-1.036-1.295-1.723-2.878-1.916-4.611h1.941v-2h-1.941c.193-1.733.88-3.316 1.916-4.611l1.368 1.368 1.414-1.414-1.368-1.368c1.295-1.036 2.878-1.723 4.611-1.916v9.941h9.941c-.193 1.733-.88 3.316-1.916 4.611zm3.284-5.243h-7.941v-7.941c4.164.463 7.478 3.776 7.941 7.941z"/><path d="m30 25h-22c-1.654 0-3 1.346-3 3v14c0 1.654 1.346 3 3 3h22c1.654 0 3-1.346 3-3v-14c0-1.654-1.346-3-3-3zm-15 2h8v4h-8zm16 15c0 .552-.449 1-1 1h-22c-.551 0-1-.448-1-1v-14c0-.552.449-1 1-1h5v6h12v-6h5c.551 0 1 .448 1 1z"/><path d="m19 39h2v2h-2z"/><path d="m27 39h2v2h-2z"/><path d="m23 39h2v2h-2z"/><path d="m35 25h16v2h-16z"/><path d="m49 29h2v2h-2z"/><path d="m45 29h2v2h-2z"/><path d="m35 29h8v2h-8z"/></svg>