<svg   id="Capa_1" enable-background="new 0 0 512 512" height="512" viewBox="0 0 512 512" width="512" xmlns="http://www.w3.org/2000/svg">
<path d="m406.442 10h43.186v492h-43.186z" fill="#fff"/>
<path d="m406.442 10v492h-274.29s-69.78-71.31-69.78-70.46v-421.54z" fill="#f9f5f3"/>
<path d="m62.372 431.54h69.779v70.46z" fill="#fff"/>
<path  d="m449.628 0h-387.256c-5.522 0-10 4.477-10 10v421.54c0 2.592 1.071 5.195 2.895 7.037l69.779 70.46c1.861 1.88 4.474 2.963 7.118 2.963h317.464c5.522 0 10-4.477 10-10v-492c0-5.523-4.478-10-10-10zm-327.477 477.511c-5.356-5.458-11.453-11.665-17.541-17.849-6.956-7.066-12.926-13.114-17.887-18.122h35.428zm317.477 14.489h-23.186v-163.587c0-5.523-4.478-10-10-10s-10 4.477-10 10v163.587h-254.291v-60.46c0-5.523-4.478-10-10-10h-59.779v-401.54h324.07v220.488c0 5.523 4.478 10 10 10s10-4.477 10-10v-220.488h23.186z"/>
<path d="m135.256 168.134 10.37-24.971h34.688l10.15 24.909c1.581 3.879 5.319 6.229 9.265 6.229 1.256 0 2.534-.238 3.77-.742 5.114-2.084 7.571-7.92 5.487-13.034l-12.716-31.206c-.01-.025-.02-.051-.031-.076l-23.756-58.297c-1.529-3.754-5.174-6.213-9.228-6.227-.012 0-.022 0-.033 0-4.04 0-7.685 2.432-9.235 6.165l-24.234 58.354c-.011.025-.021.05-.031.075l-12.936 31.15c-2.118 5.101.3 10.953 5.4 13.071 5.1 2.116 10.952-.3 13.07-5.4zm27.878-67.13 9.03 22.159h-18.232z"/>
<path d="m211.681 94.343h3.165v3.165c0 5.523 4.478 10 10 10s10-4.477 10-10v-3.165h3.165c5.522 0 10-4.477 10-10s-4.478-10-10-10h-3.165v-3.165c0-5.523-4.478-10-10-10s-10 4.477-10 10v3.165h-3.165c-5.522 0-10 4.477-10 10s4.477 10 10 10z"/>
<path d="m340.652 209.221h-208.501c-5.522 0-10 4.477-10 10s4.478 10 10 10h208.501c5.522 0 10-4.477 10-10s-4.477-10-10-10z"/>
<path d="m340.652 276.66h-208.501c-5.522 0-10 4.477-10 10s4.478 10 10 10h208.501c5.522 0 10-4.477 10-10s-4.477-10-10-10z"/>
<path d="m340.652 344.099h-208.501c-5.522 0-10 4.477-10 10s4.478 10 10 10h208.501c5.522 0 10-4.477 10-10s-4.477-10-10-10z"/>
<path d="m340.652 411.538h-154.683c-5.522 0-10 4.477-10 10s4.478 10 10 10h154.684c5.522 0 10-4.477 10-10s-4.478-10-10.001-10z"/>
<path d="m340.652 74.343h-57.178c-5.522 0-10 4.477-10 10s4.478 10 10 10h57.178c5.522 0 10-4.477 10-10s-4.477-10-10-10z"/>
<path d="m340.652 141.782h-73.41c-5.522 0-10 4.477-10 10s4.478 10 10 10h73.41c5.522 0 10-4.477 10-10s-4.477-10-10-10z"/>
<path d="m415.68 280.84c-2.067-5.043-8.039-7.483-13.06-5.41-5.039 2.081-7.494 8.025-5.41 13.06 2.086 5.038 8.028 7.48 13.06 5.4 5.022-2.077 7.504-8.024 5.41-13.05z"/>

</svg>