<svg width="443" height="478">
	<defs id="SvgjsDefs3853"></defs>
	<g id="SvgjsG3861" featurekey="root" fill="#000"></g>
	<g id="SvgjsG3862" featurekey="container1" fill="#0266b4" transform="matrix(2.2518167702876175,0,0,2.2518167702876175,0,20)">
		<defs
			xmlns="http://www.w3.org/2000/svg">
		</defs>
		<g
			xmlns="http://www.w3.org/2000/svg">
			<path d="M98.254,0C44.077,0,0,44.076,0,98.254s44.077,98.254,98.254,98.254c54.177,0,98.254-44.076,98.254-98.254    S152.431,0,98.254,0z M98.254,195.508C44.628,195.508,1,151.88,1,98.254S44.628,1,98.254,1c53.626,0,97.254,43.628,97.254,97.254    S151.88,195.508,98.254,195.508z"></path>
			<path d="M98.254,5.453c-51.171,0-92.801,41.63-92.801,92.801s41.63,92.801,92.801,92.801s92.802-41.63,92.802-92.801    S149.425,5.453,98.254,5.453z"></path>
		</g>
	</g>
	<g id="SvgjsG3863" featurekey="text1" fill="#ffffff" transform="matrix(21.186435198655158,0,0,21.186435198655158,100.66107443911034,-182.35585378075194)">
		<path d="M0.96 18.82 q0 -1.38 0.41 -2.42 t1.09 -1.73 t1.56 -1.04 t1.8 -0.35 q2.16 0 3.37 1.34 t1.21 4 q0 0.2 -0.01 0.45 t-0.03 0.45 l-6.9 0 q0.1 1.26 0.89 1.95 t2.29 0.69 q0.88 0 1.61 -0.16 t1.15 -0.34 l0.32 1.98 q-0.2 0.1 -0.55 0.21 t-0.8 0.2 t-0.97 0.15 t-1.06 0.06 q-1.38 0 -2.4 -0.41 t-1.68 -1.14 t-0.98 -1.72 t-0.32 -2.17 z M7.98 17.740000000000002 q0 -0.5 -0.14 -0.95 t-0.41 -0.78 t-0.66 -0.52 t-0.93 -0.19 q-0.56 0 -0.98 0.21 t-0.71 0.55 t-0.45 0.78 t-0.22 0.9 l4.5 0 z"></path>
	</g>
	<g id="SvgjsG3864" featurekey="text2" fill="#ffffff" transform="matrix(2.948982946017584,0,0,2.948982946017584,119.2306047131147,313.0409827453269)">
		<path d="M5.02 22.12 q1.36 0 1.98 -0.46 t0.62 -1.3 q0 -0.5 -0.21 -0.86 t-0.6 -0.65 t-0.95 -0.54 t-1.28 -0.49 q-0.72 -0.26 -1.39 -0.57 t-1.18 -0.77 t-0.82 -1.1 t-0.31 -1.54 q0 -1.88 1.3 -2.95 t3.54 -1.07 q1.3 0 2.31 0.29 t1.59 0.63 l-0.78 2.04 q-0.68 -0.38 -1.49 -0.58 t-1.67 -0.2 q-1.02 0 -1.59 0.42 t-0.57 1.18 q0 0.46 0.19 0.79 t0.54 0.59 t0.82 0.48 t1.03 0.42 q0.98 0.36 1.75 0.73 t1.3 0.88 t0.81 1.2 t0.28 1.67 q0 1.88 -1.33 2.91 t-3.89 1.03 q-0.86 0 -1.57 -0.11 t-1.26 -0.27 t-0.95 -0.33 t-0.64 -0.31 l0.74 -2.06 q0.54 0.3 1.46 0.6 t2.22 0.3 z M12.46 10.14 l2.52 0 l0 13.86 l-2.52 0 l0 -13.86 z M26.58 24 q-0.52 -0.8 -1.2 -1.68 t-1.43 -1.7 t-1.55 -1.56 t-1.58 -1.28 l0 6.22 l-2.52 0 l0 -13.86 l2.52 0 l0 5.72 q0.66 -0.66 1.38 -1.41 t1.43 -1.52 t1.35 -1.49 t1.16 -1.3 l3.02 0 q-0.66 0.76 -1.4 1.58 t-1.52 1.65 t-1.57 1.65 t-1.55 1.56 q0.84 0.64 1.71 1.49 t1.71 1.82 t1.61 2.02 t1.41 2.09 l-2.98 0 z M34.68 22.12 q1.36 0 1.98 -0.46 t0.62 -1.3 q0 -0.5 -0.21 -0.86 t-0.6 -0.65 t-0.95 -0.54 t-1.28 -0.49 q-0.72 -0.26 -1.39 -0.57 t-1.18 -0.77 t-0.82 -1.1 t-0.31 -1.54 q0 -1.88 1.3 -2.95 t3.54 -1.07 q1.3 0 2.31 0.29 t1.59 0.63 l-0.78 2.04 q-0.68 -0.38 -1.49 -0.58 t-1.67 -0.2 q-1.02 0 -1.59 0.42 t-0.57 1.18 q0 0.46 0.19 0.79 t0.54 0.59 t0.82 0.48 t1.03 0.42 q0.98 0.36 1.75 0.73 t1.3 0.88 t0.81 1.2 t0.28 1.67 q0 1.88 -1.33 2.91 t-3.89 1.03 q-0.86 0 -1.57 -0.11 t-1.26 -0.27 t-0.95 -0.33 t-0.64 -0.31 l0.74 -2.06 q0.54 0.3 1.46 0.6 t2.22 0.3 z M50.66 10.14 l2.52 0 l0 13.86 l-2.52 0 l0 -6.14 l-6.02 0 l0 6.14 l-2.52 0 l0 -13.86 l2.52 0 l0 5.54 l6.02 0 l0 -5.54 z M65.7 24 q-0.28 -0.82 -0.58 -1.62 t-0.58 -1.64 l-5.84 0 q-0.28 0.84 -0.57 1.65 t-0.57 1.61 l-2.62 0 q0.78 -2.22 1.48 -4.1 t1.37 -3.56 t1.33 -3.2 t1.36 -3 l2.38 0 q0.7 1.48 1.36 3 t1.33 3.2 t1.38 3.56 t1.49 4.1 l-2.72 0 z M61.620000000000005 12.82 q-0.46 1.06 -1.05 2.58 t-1.23 3.3 l4.56 0 q-0.64 -1.78 -1.24 -3.32 t-1.04 -2.56 z"></path>
	</g>
</svg>