<?xml version="1.0" encoding="iso-8859-1"?>
<!-- Generator: Adobe Illustrator 19.0.0, SVG Export Plug-In . SVG Version: 6.00 Build 0)  -->
<svg fill="#ff3366" version="1.1" id="Capa_1" xmlns="http://www.w3.org/2000/svg" xmlns:xlink="http://www.w3.org/1999/xlink" x="0px" y="0px"
	 viewBox="0 0 512 512" style="enable-background:new 0 0 512 512;" xml:space="preserve">
<g>
	<g>
		<path   d="M373.333,96h-26.901c-1.128-3.168-2.417-6.276-3.861-9.312L361.6,67.659c4.164-4.165,4.164-10.917,0-15.083L331.424,22.4
			c-4.165-4.164-10.917-4.164-15.083,0l-19.029,19.029c-3.036-1.445-6.144-2.733-9.312-3.861V10.667C288,4.776,283.224,0,277.333,0
			h-42.667C228.776,0,224,4.776,224,10.667v26.901c-3.167,1.124-6.276,2.41-9.312,3.851L195.659,22.4
			c-4.165-4.164-10.917-4.164-15.083,0L150.4,52.576c-4.164,4.165-4.164,10.917,0,15.083l19.029,19.029
			c-1.445,3.036-2.733,6.144-3.861,9.312h-26.901C132.776,96,128,100.776,128,106.667v42.667c0,5.891,4.776,10.667,10.667,10.667
			h26.901c1.124,3.167,2.41,6.276,3.851,9.312L150.4,188.341c-4.164,4.165-4.164,10.917,0,15.083l30.176,30.176
			c4.165,4.164,10.917,4.164,15.083,0l19.029-19.029c3.036,1.445,6.144,2.733,9.312,3.861v26.901
			c0,5.891,4.776,10.667,10.667,10.667h42.667c5.891,0,10.667-4.776,10.667-10.667v-26.891c3.168-1.128,6.276-2.417,9.312-3.861
			l19.029,19.019c4.165,4.164,10.917,4.164,15.083,0l30.176-30.176c4.164-4.165,4.164-10.917,0-15.083l-19.029-19.029
			c1.445-3.036,2.733-6.144,3.861-9.312h26.901c5.891,0,10.667-4.776,10.667-10.667v-42.667C384,100.776,379.224,96,373.333,96z
			 M362.667,138.656H338.55c-4.863,0.001-9.11,3.291-10.325,8c-1.741,6.739-4.416,13.202-7.947,19.2
			c-2.477,4.192-1.801,9.529,1.643,12.971l17.067,17.067l-15.083,15.083l-17.067-17.067c-3.442-3.444-8.779-4.12-12.971-1.643
			c-5.998,3.531-12.461,6.206-19.2,7.947c-4.709,1.216-7.999,5.462-8,10.325v24.128h-21.333l0.011-24.096
			c-0.001-4.863-3.291-9.11-8-10.325c-6.739-1.741-13.202-4.416-19.2-7.947c-4.192-2.477-9.529-1.801-12.971,1.643l-17.067,17.067
			l-15.083-15.083l17.067-17.067c3.444-3.442,4.12-8.779,1.643-12.971c-3.531-5.998-6.206-12.461-7.947-19.2
			c-1.216-4.709-5.462-7.999-10.325-8h-24.128v-21.333h24.139c4.863-0.001,9.11-3.291,10.325-8c1.741-6.739,4.416-13.202,7.947-19.2
			c2.477-4.192,1.801-9.529-1.643-12.971l-17.067-17.067l15.061-15.093l17.067,17.067c3.442,3.444,8.779,4.12,12.971,1.643
			c5.998-3.531,12.461-6.206,19.2-7.947c4.709-1.216,7.999-5.462,8-10.325V21.333h21.333v24.128
			c-0.006,4.861,3.275,9.111,7.979,10.336c6.739,1.741,13.202,4.416,19.2,7.947c4.192,2.477,9.529,1.801,12.971-1.643l17.067-17.067
			l15.093,15.061L321.91,77.162c-3.444,3.442-4.12,8.779-1.643,12.971c3.531,5.998,6.206,12.461,7.947,19.2
			c1.216,4.709,5.462,7.999,10.325,8h24.128V138.656z"/>
	</g>
</g>
<g>
	<g>
		<path fill="#ff3366" d="M256,85.333c-23.564,0-42.667,19.103-42.667,42.667c0,23.564,19.103,42.667,42.667,42.667
			c23.564,0,42.667-19.103,42.667-42.667C298.667,104.436,279.564,85.333,256,85.333z M256,149.333
			c-11.782,0-21.333-9.551-21.333-21.333s9.551-21.333,21.333-21.333c11.782,0,21.333,9.551,21.333,21.333
			S267.782,149.333,256,149.333z"/>
	</g>
</g>
<g>
	<g>
		<path fill="#ff3366" d="M181.333,266.667v21.024c0,35.509-19.136,64.309-42.667,64.309C115.136,352,96,323.2,96,287.691v-19.52
			c5.28-19.354,22.613-32.965,42.667-33.504v-21.333c-30.283,0.5-56.431,21.334-63.68,50.741c-0.212,0.848-0.32,1.718-0.32,2.592
			v21.024c0,48.021,28.117,85.643,64,85.643s64-37.621,64-85.643v-21.024H181.333z"/>
	</g>
</g>
<g>
	<g>
		<path fill="#ff3366" d="M192,373.333c-0.859,0.055-1.72,0.055-2.579,0c-11.07-0.712-19.467-10.263-18.754-21.333h-21.333
			c-0.024,0.815-0.024,1.631,0,2.447c0.676,22.888,19.778,40.896,42.667,40.22c17.673,0,32,14.327,32,32V512h21.333v-85.333
			C245.298,397.226,221.441,373.369,192,373.333z"/>
	</g>
</g>
<g>
	<g>
		<path fill="#ff3366" d="M128,352h-21.333c0.054,0.851,0.054,1.705,0,2.556c-0.706,11.076-10.257,19.483-21.333,18.777
			C55.893,373.369,32.035,397.226,32,426.667V512h21.333v-85.333c0-17.673,14.327-32,32-32c0.815,0.024,1.631,0.024,2.447,0
			C110.669,393.991,128.676,374.889,128,352z"/>
	</g>
</g>
<g>
	<g>
		<rect x="74.67" y="437.33" width="21.333" height="74.67"/>
	</g>
</g>
<g>
	<g>
		<rect x="181.33" y="437.33" width="21.333" height="74.67"/>
	</g>
</g>
<g>
	<g>
		<path d="M437.013,264.075c-7.249-29.407-33.397-50.242-63.68-50.741v21.333c20.049,0.541,37.38,14.146,42.667,33.493v19.531
			C416,323.2,396.864,352,373.333,352s-42.667-28.8-42.667-64.309v-21.024h-21.333v21.024c0,48.021,28.117,85.643,64,85.643
			s64-37.621,64-85.643v-21.024C437.333,265.793,437.226,264.922,437.013,264.075z"/>
	</g>
</g>
<g>
	<g>
		<path d="M426.667,373.333c-0.859,0.055-1.72,0.055-2.579,0c-11.07-0.712-19.467-10.263-18.754-21.333H384
			c-0.024,0.815-0.024,1.631,0,2.447c0.676,22.888,19.778,40.896,42.667,40.22c17.673,0,32,14.327,32,32V512H480v-85.333
			C479.965,397.226,456.107,373.369,426.667,373.333z"/>
	</g>
</g>
<g>
	<g>
		<path d="M362.667,352h-21.333c0.054,0.851,0.054,1.705,0,2.556c-0.706,11.076-10.257,19.483-21.333,18.777
			c-29.441,0.035-53.298,23.893-53.333,53.333V512H288v-85.333c0-17.673,14.327-32,32-32c0.815,0.024,1.631,0.024,2.447,0
			C345.335,393.991,363.342,374.889,362.667,352z"/>
	</g>
</g>
<g>
	<g>
		<rect x="309.33" y="437.33" width="21.333" height="74.67"/>
	</g>
</g>
<g>
	<g>
		<rect x="416" y="437.33" width="21.333" height="74.67"/>
	</g>
</g>
<g>
	<g>
		<rect x="245.33" y="277.33" width="21.333" height="21.333"/>
	</g>
</g>
<g>
	<g>
		<rect x="245.33" y="320" width="21.333" height="21.333"/>
	</g>
</g>
<g>
	<g>
		<rect x="245.33" y="362.67" width="21.333" height="21.333"/>
	</g>
</g>
<g>
</g>
<g>
</g>
<g>
</g>
<g>
</g>
<g>
</g>
<g>
</g>
<g>
</g>
<g>
</g>
<g>
</g>
<g>
</g>
<g>
</g>
<g>
</g>
<g>
</g>
<g>
</g>
<g>
</g>
</svg>
