<?xml version="1.0" encoding="iso-8859-1"?>
<!-- Generator: Adobe Illustrator 19.0.0, SVG Export Plug-In . SVG Version: 6.00 Build 0)  -->
<svg fill="#fff" version="1.1" id="Layer_1" xmlns="http://www.w3.org/2000/svg" xmlns:xlink="http://www.w3.org/1999/xlink" x="0px" y="0px"
	 viewBox="0 0 512 512" style="enable-background:new 0 0 512 512;" xml:space="preserve">
<g>
	<g>
		<path d="M486.881,106.889h-9.086v-9.086c0-4.427-3.589-8.017-8.017-8.017h-120.25V37.946c0-9.136-7.432-16.568-16.568-16.568
			h-17.102c-9.136,0-16.568,7.432-16.568,16.568v51.841h-9.086c-6.603,0-12.614,2.564-17.102,6.745
			c-4.488-4.18-10.5-6.745-17.102-6.745H76.426c-4.427,0-8.017,3.589-8.017,8.017v9.086h-9.086
			c-13.851,0-25.119,11.268-25.119,25.119v171.557h-9.086C11.268,303.566,0,314.834,0,328.685v136.818
			c0,13.851,11.268,25.119,25.119,25.119h68.409c13.851,0,25.119-11.268,25.119-25.119v-43.29h146.438v0.534
			c0,4.427,3.589,8.017,8.017,8.017s8.017-3.589,8.017-8.017v-0.534h205.762c13.851,0,25.119-11.268,25.119-25.119V132.008
			C512,118.158,500.732,106.889,486.881,106.889z M50.238,132.008c0-5.01,4.076-9.086,9.086-9.086h9.086v180.643H50.238V132.008z
			 M102.614,465.503c0,5.01-4.076,9.086-9.086,9.086H25.119c-5.01,0-9.086-4.076-9.086-9.086v-9.086h86.58V465.503z
			 M102.614,440.384h-86.58V328.685c0-5.01,4.076-9.086,9.086-9.086h68.409c5.01,0,9.086,4.076,9.086,9.086V440.384z
			 M265.086,406.18H118.647v-18.171H256c5.01,0,9.086,4.076,9.086,9.086V406.18z M265.086,354.338v19.336
			c-2.819-1.098-5.883-1.7-9.086-1.7H118.647v-43.29c0-13.851-11.268-25.119-25.119-25.119h-9.086V105.82H256
			c5.01,0,9.086,4.076,9.086,9.086V354.338z M315.324,37.946c0-0.295,0.239-0.534,0.534-0.534h17.102
			c0.295,0,0.534,0.239,0.534,0.534v17.637h-18.171V37.946z M315.324,71.616h18.171v197.745h-18.171V71.616z M333.091,285.395
			l-8.682,21.705l-8.682-21.705H333.091z M281.119,354.338V114.906c0-5.01,4.076-9.086,9.086-9.086h9.086v180.109
			c0,1.02,0.195,2.03,0.574,2.978l17.102,42.756c1.217,3.043,4.164,5.039,7.443,5.039s6.226-1.996,7.443-5.039l17.102-42.756
			c0.378-0.947,0.574-1.958,0.574-2.978V105.82h112.234v266.155H290.205c-3.202,0-6.267,0.602-9.086,1.7V354.338z M495.967,397.094
			c0,5.01-4.076,9.086-9.086,9.086H281.119v-9.086c0-5.01,4.076-9.086,9.086-9.086h179.574c4.427,0,8.017-3.589,8.017-8.017V122.923
			h9.086c5.01,0,9.086,4.076,9.086,9.086V397.094z"/>
	</g>
</g>
<g>
	<g>
		<path fill="#fff" d="M76.426,406.18H42.221c-4.427,0-8.017,3.589-8.017,8.017c0,4.427,3.589,8.017,8.017,8.017h34.205
			c4.427,0,8.017-3.589,8.017-8.017C84.443,409.769,80.853,406.18,76.426,406.18z"/>
	</g>
</g>
<g>
	<g>
		<path d="M76.426,371.975H42.221c-4.427,0-8.017,3.589-8.017,8.017c0,4.427,3.589,8.017,8.017,8.017h34.205
			c4.427,0,8.017-3.589,8.017-8.017C84.443,375.564,80.853,371.975,76.426,371.975z"/>
	</g>
</g>
<g>
	<g>
		<path d="M76.426,337.77H42.221c-4.427,0-8.017,3.589-8.017,8.017s3.589,8.017,8.017,8.017h34.205c4.427,0,8.017-3.589,8.017-8.017
			S80.853,337.77,76.426,337.77z"/>
	</g>
</g>
<g>
	<g>
		<path d="M59.366,457.486h-0.086c-4.427,0-7.974,3.589-7.974,8.017c0,4.427,3.632,8.017,8.059,8.017s8.017-3.589,8.017-8.017
			C67.383,461.076,63.794,457.486,59.366,457.486z"/>
	</g>
</g>
<g>
	<g>
		<path d="M230.347,132.543H119.182c-4.427,0-8.017,3.589-8.017,8.017s3.589,8.017,8.017,8.017h111.165
			c4.427,0,8.017-3.589,8.017-8.017S234.774,132.543,230.347,132.543z"/>
	</g>
</g>
<g>
	<g>
		<path d="M230.347,166.747h-51.309c-4.427,0-8.017,3.589-8.017,8.017s3.589,8.017,8.017,8.017h51.309
			c4.427,0,8.017-3.589,8.017-8.017S234.774,166.747,230.347,166.747z"/>
	</g>
</g>
<g>
	<g>
		<path d="M144.834,166.747h-25.652c-4.427,0-8.017,3.589-8.017,8.017s3.589,8.017,8.017,8.017h25.652
			c4.427,0,8.017-3.589,8.017-8.017S149.261,166.747,144.834,166.747z"/>
	</g>
</g>
<g>
	<g>
		<path d="M161.937,200.952h-42.756c-4.427,0-8.017,3.589-8.017,8.017s3.589,8.017,8.017,8.017h42.756
			c4.427,0,8.017-3.589,8.017-8.017S166.365,200.952,161.937,200.952z"/>
	</g>
</g>
<g>
</g>
<g>
</g>
<g>
</g>
<g>
</g>
<g>
</g>
<g>
</g>
<g>
</g>
<g>
</g>
<g>
</g>
<g>
</g>
<g>
</g>
<g>
</g>
<g>
</g>
<g>
</g>
<g>
</g>
</svg>
