<?xml version="1.0" encoding="iso-8859-1"?>
<!-- Generator: Adobe Illustrator 19.0.0, SVG Export Plug-In . SVG Version: 6.00 Build 0)  -->
<svg fill="#ff0000" version="1.1" id="Layer_1" xmlns="http://www.w3.org/2000/svg" xmlns:xlink="http://www.w3.org/1999/xlink" x="0px" y="0px"
	 viewBox="0 0 512 512" style="enable-background:new 0 0 512 512;" xml:space="preserve">
<g>
	<g>
		<path d="M145.046,230.404H85.321c-4.712,0-8.532,3.82-8.532,8.532v85.321c0,4.712,3.82,8.532,8.532,8.532h59.725
			c4.712,0,8.532-3.82,8.532-8.532v-85.321C153.578,234.224,149.758,230.404,145.046,230.404z M136.514,315.725H93.853v-68.257
			h42.661V315.725z"/>
	</g>
</g>
<g>
	<g>
		<path d="M426.605,230.404H366.88c-4.712,0-8.532,3.82-8.532,8.532v85.321c0,4.712,3.82,8.532,8.532,8.532h59.725
			c4.712,0,8.532-3.82,8.532-8.532v-85.321C435.137,234.224,431.317,230.404,426.605,230.404z M418.073,315.725h-42.66v-68.257
			h42.66V315.725z"/>
	</g>
</g>
<g>
	<g>
		<path d="M145.046,366.917H85.321c-4.712,0-8.532,3.82-8.532,8.532v85.321c0,4.712,3.82,8.532,8.532,8.532h59.725
			c4.712,0,8.532-3.82,8.532-8.532v-85.321C153.578,370.738,149.758,366.917,145.046,366.917z M136.514,452.238H93.853v-68.257
			h42.661V452.238z"/>
	</g>
</g>
<g>
	<g>
		<path d="M426.605,366.917H366.88c-4.712,0-8.532,3.82-8.532,8.532v85.321c0,4.712,3.82,8.532,8.532,8.532h59.725
			c4.712,0,8.532-3.82,8.532-8.532v-85.321C435.137,370.738,431.317,366.917,426.605,366.917z M418.073,452.238h-42.66v-68.257
			h42.66V452.238z"/>
	</g>
</g>
<g>
	<g>
		<polygon points="237.111,29.839 237.111,53.721 211.08,53.721 211.08,29.839 200.675,29.839 200.675,85.358 211.08,85.358 
			211.08,61.093 237.111,61.093 237.111,85.358 247.516,85.358 247.516,29.839 		"/>
	</g>
</g>
<g>
	<g>
		<polygon points="391.841,76.834 391.841,29.839 381.513,29.839 381.513,85.358 414.071,85.358 414.071,76.834 		"/>
	</g>
</g>
<g>
	<g>
		<path d="M140.185,62.092c-0.73-1.614-1.696-2.976-2.899-4.09c-1.203-1.113-2.572-2.035-4.108-2.765
			c-1.536-0.729-3.104-1.369-4.703-1.92c-1.6-0.551-3.168-1.069-4.703-1.555c-1.536-0.486-2.905-1.037-4.108-1.651
			c-1.203-0.615-2.169-1.357-2.899-2.227c-0.729-0.87-1.094-1.958-1.094-3.263c0-1.024,0.179-1.965,0.537-2.822
			c0.358-0.858,0.902-1.594,1.632-2.208c0.729-0.614,1.625-1.094,2.688-1.44c1.062-0.345,2.31-0.518,3.743-0.518
			c1.587,0,2.963,0.198,4.127,0.595c1.165,0.397,2.182,0.839,3.052,1.324c0.87,0.486,1.625,0.928,2.265,1.325
			c0.64,0.397,1.216,0.595,1.728,0.595c0.512,0,0.953-0.115,1.325-0.346c0.371-0.23,0.698-0.627,0.979-1.19l2.534-4.876
			c-1.945-1.843-4.3-3.276-7.065-4.3s-5.785-1.536-9.061-1.536c-2.892,0-5.465,0.448-7.717,1.344
			c-2.253,0.896-4.153,2.086-5.702,3.571c-1.549,1.485-2.726,3.187-3.532,5.106c-0.806,1.92-1.209,3.891-1.209,5.913
			c0,2.534,0.365,4.665,1.094,6.392c0.729,1.728,1.696,3.168,2.899,4.32c1.203,1.152,2.572,2.086,4.108,2.803
			c1.536,0.716,3.097,1.331,4.684,1.843s3.148,0.985,4.684,1.421s2.905,0.966,4.108,1.594c1.203,0.627,2.169,1.401,2.899,2.323
			c0.729,0.922,1.094,2.112,1.094,3.571c0,2.611-0.806,4.614-2.419,6.009c-1.613,1.395-3.891,2.092-6.834,2.092
			c-1.92,0-3.564-0.262-4.934-0.787c-1.369-0.525-2.56-1.107-3.571-1.747c-1.011-0.64-1.888-1.222-2.63-1.747
			c-0.742-0.525-1.433-0.787-2.073-0.787c-0.486,0-0.928,0.122-1.325,0.365s-0.736,0.544-1.017,0.902l-2.995,4.953
			c1.075,1.101,2.297,2.099,3.667,2.995c1.369,0.896,2.841,1.664,4.415,2.304c1.574,0.64,3.219,1.133,4.934,1.478
			c1.715,0.346,3.456,0.519,5.222,0.519c3.072,0,5.798-0.467,8.178-1.401c2.38-0.934,4.396-2.214,6.047-3.839
			c1.651-1.625,2.905-3.532,3.763-5.721c0.857-2.188,1.286-4.537,1.286-7.045C141.279,65.663,140.914,63.704,140.185,62.092z"/>
	</g>
</g>
<g>
	<g>
		<path d="M187.352,72.265c-0.333,0-0.64,0.07-0.921,0.211c-0.282,0.141-0.55,0.327-0.806,0.557
			c-0.845,0.768-1.696,1.414-2.553,1.939c-0.857,0.524-1.766,0.953-2.726,1.286s-2.009,0.576-3.148,0.729
			c-1.139,0.154-2.412,0.231-3.82,0.231c-2.355,0-4.556-0.442-6.604-1.325c-2.048-0.883-3.826-2.156-5.337-3.82
			c-1.51-1.664-2.707-3.711-3.59-6.143c-0.883-2.432-1.325-5.209-1.325-8.332c0-3.02,0.442-5.74,1.325-8.159
			c0.883-2.418,2.112-4.473,3.686-6.162c1.574-1.689,3.456-2.988,5.644-3.897s4.588-1.363,7.199-1.363
			c2.227,0,4.063,0.231,5.51,0.691c1.446,0.461,2.643,0.96,3.59,1.498c0.947,0.538,1.728,1.037,2.342,1.497
			c0.614,0.461,1.216,0.691,1.805,0.691c0.563,0,1.005-0.115,1.325-0.345c0.32-0.231,0.582-0.499,0.787-0.806l3.456-4.799
			c-2.201-2.176-4.844-3.923-7.928-5.241c-3.084-1.319-6.687-1.977-10.808-1.977c-4.223,0-8.082,0.697-11.576,2.093
			c-3.494,1.395-6.495,3.346-9.004,5.855c-2.508,2.509-4.454,5.497-5.836,8.965c-1.382,3.468-2.073,7.289-2.073,11.461
			c0,4.121,0.621,7.922,1.862,11.403c1.241,3.481,3.027,6.476,5.356,8.984c2.329,2.508,5.138,4.467,8.428,5.875
			c3.289,1.408,6.994,2.112,11.115,2.112c4.607,0,8.556-0.742,11.845-2.227c3.289-1.484,6.06-3.622,8.312-6.412l-4.07-4.416
			C188.402,72.483,187.915,72.265,187.352,72.265z"/>
	</g>
</g>
<g>
	<g>
		<path d="M309.946,46.292c-1.356-3.468-3.264-6.463-5.721-8.984c-2.457-2.521-5.414-4.498-8.869-5.932
			c-3.456-1.433-7.282-2.15-11.48-2.15c-4.198,0-8.031,0.71-11.499,2.131c-3.468,1.421-6.438,3.397-8.908,5.932
			c-2.47,2.534-4.383,5.535-5.74,9.003s-2.035,7.237-2.035,11.307c0,4.07,0.678,7.838,2.035,11.307
			c1.357,3.468,3.27,6.469,5.74,9.003c2.47,2.534,5.439,4.511,8.908,5.932c3.468,1.421,7.301,2.131,11.499,2.131
			c4.198,0,8.024-0.71,11.48-2.131s6.412-3.398,8.869-5.932c2.457-2.534,4.364-5.535,5.721-9.003
			c1.357-3.469,2.035-7.238,2.035-11.307C311.981,53.529,311.302,49.76,309.946,46.292z M300.174,65.796
			c-0.806,2.418-1.965,4.467-3.475,6.143c-1.51,1.677-3.347,2.963-5.51,3.859c-2.163,0.896-4.601,1.344-7.314,1.344
			s-5.158-0.448-7.333-1.344c-2.176-0.896-4.025-2.182-5.548-3.859c-1.523-1.676-2.694-3.724-3.513-6.143
			c-0.819-2.419-1.229-5.151-1.229-8.197s0.41-5.778,1.229-8.197c0.819-2.419,1.99-4.473,3.513-6.163
			c1.523-1.689,3.372-2.982,5.548-3.878c2.176-0.896,4.62-1.344,7.333-1.344s5.151,0.448,7.314,1.344
			c2.163,0.896,3.999,2.188,5.51,3.878c1.51,1.689,2.668,3.744,3.475,6.163s1.209,5.151,1.209,8.197S300.98,63.377,300.174,65.796z"
			/>
	</g>
</g>
<g>
	<g>
		<path d="M371.338,46.292c-1.357-3.468-3.264-6.463-5.721-8.984c-2.457-2.521-5.414-4.498-8.869-5.932
			c-3.456-1.433-7.282-2.15-11.48-2.15c-4.198,0-8.031,0.71-11.499,2.131c-3.468,1.421-6.438,3.397-8.908,5.932
			c-2.47,2.534-4.384,5.535-5.74,9.003c-1.356,3.468-2.035,7.237-2.035,11.307c0,4.07,0.678,7.838,2.035,11.307
			c1.357,3.468,3.27,6.469,5.74,9.003c2.47,2.534,5.439,4.511,8.908,5.932c3.468,1.421,7.301,2.131,11.499,2.131
			c4.198,0,8.024-0.71,11.48-2.131s6.412-3.398,8.869-5.932c2.457-2.534,4.364-5.535,5.721-9.003
			c1.357-3.469,2.035-7.238,2.035-11.307C373.373,53.529,372.695,49.76,371.338,46.292z M361.567,65.796
			c-0.806,2.418-1.965,4.467-3.475,6.143c-1.51,1.677-3.347,2.963-5.51,3.859c-2.163,0.896-4.601,1.344-7.314,1.344
			s-5.158-0.448-7.333-1.344c-2.176-0.896-4.025-2.182-5.548-3.859c-1.523-1.676-2.694-3.724-3.513-6.143
			c-0.819-2.419-1.229-5.151-1.229-8.197s0.41-5.778,1.229-8.197c0.819-2.419,1.99-4.473,3.513-6.163
			c1.523-1.689,3.372-2.982,5.548-3.878c2.176-0.896,4.62-1.344,7.333-1.344s5.151,0.448,7.314,1.344
			c2.163,0.896,3.999,2.188,5.51,3.878c1.51,1.689,2.668,3.744,3.475,6.163c0.806,2.419,1.209,5.151,1.209,8.197
			S362.373,63.377,361.567,65.796z"/>
	</g>
</g>
<g>
	<g>
		<path d="M477.798,494.899V204.807h8.532c4.712,0,8.532-3.82,8.532-8.532v-42.66c0-4.712-3.82-8.532-8.532-8.532h-8.532v-34.128
			c0-4.712-3.82-8.532-8.532-8.532h-17.064V8.569c0-4.712-3.82-8.532-8.532-8.532H68.257c-4.712,0-8.532,3.82-8.532,8.532v93.853
			H42.661c-4.712,0-8.532,3.82-8.532,8.532v34.128h-8.532c-4.712,0-8.532,3.82-8.532,8.532v42.66c0,4.712,3.82,8.532,8.532,8.532
			h8.532v290.091H0v17.064h42.661h153.578h119.449h153.578H512v-17.064H477.798z M76.789,17.101h358.348v85.321H76.789V17.101z
			 M51.193,119.486h17.064h375.412h17.064v25.596H51.193V119.486z M307.156,494.899H204.77v-153.52
			c0-23.555,19.131-42.718,42.645-42.718h17.095c23.514,0,42.645,19.163,42.645,42.718V494.899z M460.733,494.899H324.22v-153.52
			c0-32.964-26.786-59.782-59.709-59.782h-17.095c-32.923,0-59.709,26.818-59.709,59.782v153.52H51.193V204.807h409.541V494.899z
			 M42.661,187.743h-8.532v-25.596h8.532h426.605h8.532v25.596h-8.532H42.661z"/>
	</g>
</g>
</svg>
