<svg fill="#3cb878" height="512pt" viewBox="-30 0 511 512" width="512pt" xmlns="http://www.w3.org/2000/svg"><path d="m319.367188 236.902344c4.140624 0 7.5-3.359375 7.5-7.5v-18.21875c0-4.140625-3.359376-7.5-7.5-7.5-4.140626 0-7.5 3.359375-7.5 7.5v18.21875c0 4.140625 3.355468 7.5 7.5 7.5zm0 0"/><path d="m331.773438 248.679688h-24.8125c-4.144532 0-7.5 3.355468-7.5 7.5 0 4.140624 3.355468 7.5 7.5 7.5h24.8125c4.140624 0 7.5-3.359376 7.5-7.5 0-4.144532-3.359376-7.5-7.5-7.5zm0 0"/><path d="m131.976562 236.902344c4.144532 0 7.5-3.359375 7.5-7.5v-18.21875c0-4.140625-3.355468-7.5-7.5-7.5-4.140624 0-7.5 3.359375-7.5 7.5v18.21875c0 4.140625 3.359376 7.5 7.5 7.5zm0 0"/><path d="m144.382812 248.679688h-24.8125c-4.140624 0-7.5 3.355468-7.5 7.5 0 4.140624 3.359376 7.5 7.5 7.5h24.8125c4.144532 0 7.5-3.359376 7.5-7.5 0-4.144532-3.355468-7.5-7.5-7.5zm0 0"/><path d="m247.367188 242.089844c-3.121094-2.726563-7.859376-2.410156-10.585938.710937-2.691406 3.082031-6.742188 4.847657-11.109375 4.847657s-8.417969-1.765626-11.113281-4.847657c-2.722656-3.117187-7.460938-3.4375-10.582032-.710937-3.117187 2.726562-3.4375 7.464844-.710937 10.582031 5.542969 6.339844 13.710937 9.976563 22.40625 9.976563s16.863281-3.636719 22.40625-9.976563c2.726563-3.117187 2.40625-7.855469-.710937-10.582031zm0 0"/><path d="m.5 20.085938v19.683593c0 11.074219 9.011719 20.085938 20.089844 20.085938h15.949218v71.851562c-9.71875 18.480469-16.351562 38.234375-19.738281 58.792969-9.960937 8.40625-16.300781 20.972656-16.300781 34.996094 0 25.160156 20.394531 45.640625 45.519531 45.792968 14.484375 47.945313 49.707031 87.632813 95.8125 109.71875-4.449219 2.726563-9.421875 6.125-14.566406 10.285157 0 0 0 .003906-.003906.003906-23.304688 18.832031-51.085938 53.761719-51.085938 113.203125 0 4.140625 3.355469 7.5 7.5 7.5h283.996094c4.140625 0 7.5-3.359375 7.5-7.5 0-59.441406-27.78125-94.367188-51.089844-113.203125 0 0-.003906-.003906-.003906-.003906-5.144531-4.15625-10.117187-7.558594-14.5625-10.285157 46.101563-22.082031 81.328125-61.773437 95.8125-109.71875 25.121094-.152343 45.515625-20.632812 45.515625-45.792968 0-14.023438-6.339844-26.585938-16.296875-34.996094-3.386719-20.558594-10.019531-40.3125-19.742187-58.796875v-71.847656h15.953124c11.078126 0 20.085938-9.011719 20.085938-20.085938v-19.683593c0-11.074219-9.011719-20.085938-20.085938-20.085938h-308.199218c-4.144532 0-7.5 3.359375-7.5 7.5s3.355468 7.5 7.5 7.5h308.199218c2.804688 0 5.085938 2.28125 5.085938 5.085938v19.683593c0 2.804688-2.28125 5.085938-5.085938 5.085938h-410.167968c-2.808594 0-5.089844-2.28125-5.089844-5.085938v-19.683593c0-2.804688 2.28125-5.085938 5.089844-5.085938h71.96875c4.140625 0 7.5-3.359375 7.5-7.5s-3.359375-7.5-7.5-7.5h-71.96875c-11.078125 0-20.089844 9.011719-20.089844 20.085938zm41.667969 235.9375c-15.035157-2.027344-26.667969-14.945313-26.667969-30.527344 0-15.761719 12.558594-29.433594 28.289062-30.699219.089844-.007813 1.0625-.046875 1.457032-.058594-4.226563 8.558594-6.441406 18.105469-6.441406 27.644531 0 11.277344 1.121093 22.589844 3.363281 33.640626zm148.609375 140.78125c.097656.296874.203125.605468.308594.914062 2.78125 8.105469 7.015624 15.699219 11.875 22.734375.054687.078125.402343.464844.378906.546875-1.707032 6.574219-5.355469 21.636719-8.144532 39.980469-.066406.433593-.136718.867187-.199218 1.300781-.121094-.0625-.238282-.128906-.355469-.195312-19.089844-10.613282-34.089844-27.617188-45.121094-46.242188-3.085937-5.214844-5.898437-10.589844-8.363281-16.125-.023438-.050781-.046875-.097656-.066406-.148438 7.300781-5.378906 13.875-8.980468 18.34375-11.148437 7.78125 2.800781 15.78125 5.105469 23.921875 6.894531.121093.027344 7.421875 1.363282 7.421875 1.488282zm21.304687 2.632812c5.65625.390625 11.320313.527344 16.988281.429688 4.8125-.078126 9.632813-.332032 14.425782-.765626-.042969.09375-.082032.183594-.125.277344-2.105469 4.410156-4.617188 8.609375-7.394532 12.628906h-20.609374c-2.78125-4.023437-5.3125-8.246093-7.414063-12.667968-.035156-.082032-.070313-.15625-.105469-.234375 1.410156.125 2.820313.234375 4.234375.332031zm17.300781 72.433594c-1.230468.222656-2.46875.429687-3.710937.601562-1.242187-.167968-2.476563-.378906-3.707031-.601562-4.292969-.777344-8.542969-1.84375-12.667969-3.269532-.015625-.003906-.03125-.007812-.050781-.011718.007812-.050782.015625-.101563.023437-.148438 2.476563-18.03125 6.058594-33.589844 8.023438-41.433594h16.757812c2.707031 0 7.859375 41.644532 8.046875 41.582032-.03125.007812-.058594.015625-.089844.027344-1.148437.390624-9.546874 2.695312-12.625 3.253906zm130.621094 25.128906h-26.289062v-31.195312c0-4.144532-3.359375-7.5-7.5-7.5-4.144532 0-7.5 3.355468-7.5 7.5v31.195312h-186.082032v-31.195312c0-4.144532-3.359374-7.5-7.5-7.5-4.144531 0-7.5 3.355468-7.5 7.5v31.195312h-26.292968c1.910156-42.824219 20.046875-70.453125 37.792968-87.398438 7.597657 16.109376 25.832032 47.722657 58.3125 65.660157 11.535157 6.371093 24.203126 10.550781 37.28125 12.21875.628907.078125 1.261719.078125 1.890626 0 18.011718-2.277344 35.261718-9.527344 49.839843-20.285157 24.71875-18.246093 39.199219-43.691406 45.753907-57.589843 17.746093 16.941406 35.882812 44.570312 37.792968 87.394531zm-68.089844-108.578125c4.46875 2.167969 11.042969 5.773437 18.34375 11.148437-5.082031 11.476563-19.839843 40.273438-46.609374 58.265626-2.367188 1.589843-4.800782 3.074218-7.296876 4.449218-.015624-.105468-.035156-.207031-.046874-.3125-1.613282-10.746094-3.65625-21.425781-6.113282-32.011718-.683594-2.945313-1.394531-5.882813-2.148437-8.8125-.011719-.046876-.027344-.101563-.039063-.148438 5.21875-7.464844 9.703125-15.527344 12.566406-24.195312 2.488282-.449219 4.96875-.949219 7.4375-1.492188 8.132813-1.789062 16.128907-4.089844 23.90625-6.890625zm-22.640624-8.816406c-28.480469 7.066406-58.699219 7.070312-87.179688.003906-61.074219-15.148437-108.984375-61.355469-123.636719-119.617187-5.53125-21.996094-9.65625-48.089844 5.734375-67.1875 10.167969-12.621094 26.320313-17.738282 41.664063-20.664063 38.28125-7.296875 76.53125 2.175781 114.011719 9.507813 22.4375 4.386718 45.648437 8.253906 70.386718 8.253906 27.863282 0 55.460938-5.4375 81.273438-15.898438 3.566406-1.445312 7.617187-4.066406 11.605468-3.644531 5.085938.542969 7.109376 5.09375 8.429688 9.429687 7.851562 25.824219 7.890625 54.074219 1.328125 80.183594-14.644531 58.261719-62.542969 104.472656-123.617187 119.632813zm139.902343-123.582031c.082031-.40625.152344-.8125.230469-1.214844 3.773438-19.375 4.167969-39.644532 1.011719-59.207032-.003907-.027343-.050781-.445312-.070313-.449218 4.496094.78125 8.65625 2.542968 12.261719 5.058594.035156.023437.074219.050781.109375.074218 7.929688 5.582032 13.125 14.800782 13.125 25.210938 0 15.582031-11.628906 28.5-26.667969 30.527344zm-9.371093-196.167969v66.191406h-56.492188c-4.140625 0-7.5 3.359375-7.5 7.5s3.359375 7.5 7.5 7.5h59.449219c6.523437 12.863281 11.445312 26.375 14.703125 40.347656-1.246094-.347656-2.527344-.640625-3.800782-.871093-1.445312-.265626-5.820312-.75-6.558593-.78125-.023438-.09375-.050781-.1875-.074219-.28125-1.082031-4.140626-2.089844-8.53125-4.238281-12.273438-5.960938-10.378906-19.480469-14.652344-30.386719-9.8125-23.523438 10.445312-48.824219 16.476562-74.5625 17.378906-37.9375 1.332032-74.800781-8.328125-111.824219-15.035156-31.964843-5.792969-63.246093-8.816406-96.425781.988281-13.085938 3.867188-25.3125 9.601563-34.664062 19.800781-.789063-.148437-1.582032-.273437-2.378907-.378906-6.203125-.851562-12.636719-.429687-18.667969 1.269532 3.257813-13.976563 8.179688-27.488282 14.703126-40.351563h265.40625c4.140624 0 7.5-3.355469 7.5-7.5 0-4.140625-3.359376-7.5-7.5-7.5h-262.453126v-66.191406zm0 0"/></svg>