<!-- Generator: Adobe Illustrator 19.0.0, SVG Export Plug-In . SVG Version: 6.00 Build 0)  -->
<svg version="1.1" fill="#3f7afc" id="Layer_1" xmlns="http://www.w3.org/2000/svg" xmlns:xlink="http://www.w3.org/1999/xlink" x="0px" y="0px"
	 viewBox="0 0 496 496" style="enable-background:new 0 0 496 496;" xml:space="preserve">
<g>
	<g>
		<g>
			<path d="M496,456v-16h-40v-24h16v-16h-32v-17.472c9.288-3.312,16-12.112,16-22.528v-40h-48v40c0,10.416,6.712,19.216,16,22.528
				V400h-32v16h16v24h-92.248l-37.6-45.128l-12.296,10.248l42.4,50.872H312v24h-56V384h96v-32h16v-8c0-21.704-5.88-42.024-16-59.616
				V32h-48v-8c0-13.232-10.768-24-24-24s-24,10.768-24,24v8H96v-8C96,10.768,85.232,0,72,0S48,10.768,48,24v8H0v352h240v96h-40v16
				h296v-16h-16v-24H496z M208.328,336c2.64-48.88,28.48-81.136,39.672-92.856c11.192,11.72,37.032,43.976,39.672,92.856H208.328z
				 M224,208v18.416c-5.496,1.12-10.8,2.736-16,4.584v-23h-64v48h22.688c-21.88,20.232-36.184,48.44-38.288,80H48V128h256v109.944
				c-5.112-2.712-10.48-4.984-16-6.944v-23H224z M272,224v2.416c-7.76-1.576-15.784-2.416-24-2.416c-2.704,0-5.344,0.232-8,0.408
				V224h8H272z M192,224v13.944c-1.224,0.648-2.416,1.36-3.616,2.056H160v-16H192z M227.68,242.008
				c-14.168,17.64-33.24,49.464-35.36,93.992h-48.016C147.888,289.2,182.576,250.976,227.68,242.008z M336,368h-80v-16h80V368z
				 M303.68,336c-2.12-44.528-21.192-76.352-35.36-93.992c45.104,8.968,79.792,47.192,83.376,93.992H303.68z M272,24
				c0-4.416,3.584-8,8-8c4.416,0,8,3.584,8,8v48c0,4.416-3.584,8-8,8c-4.416,0-8-3.584-8-8V24z M64,24c0-4.416,3.584-8,8-8
				s8,3.584,8,8v48c0,4.416-3.584,8-8,8s-8-3.584-8-8V24z M240,368H16V48h32v24c0,13.232,10.768,24,24,24s24-10.768,24-24V48h160v24
				c0,13.232,10.768,24,24,24s24-10.768,24-24V48h32v214.688c-4.976-5.384-10.424-10.288-16.304-14.688H320V112H32v240h96h72h40V368
				z M424,336h16v24c0,4.416-3.584,8-8,8c-4.416,0-8-3.584-8-8V336z M424,416h16v24h-16V416z M464,480H328v-24h136V480z"/>
			<path d="M64,192h64v-48H64V192z M80,160h32v16H80V160z"/>
			<path d="M144,192h64v-48h-64V192z M160,160h32v16h-32V160z"/>
			<path d="M288,144h-64v48h64V144z M272,176h-32v-16h32V176z"/>
			<path d="M64,256h64v-48H64V256z M80,224h32v16H80V224z"/>
			<path d="M64,320h64v-48H64V320z M80,288h32v16H80V288z"/>
		</g>
	</g>
</g>
</svg>
